<mxfile host="app.diagrams.net" agent="Mozilla/5.0 (Windows NT 10.0; WOW64) AppleWebKit/537.36 (KHTML, like Gecko) Chrome/122.0.6261.95 Safari/537.36" version="26.2.8">
  <diagram name="第 1 页" id="xNd0SMMOYdxS1iS7l8PG">
    <mxGraphModel dx="826" dy="455" grid="1" gridSize="10" guides="1" tooltips="1" connect="1" arrows="1" fold="1" page="1" pageScale="1" pageWidth="827" pageHeight="1169" math="1" shadow="0">
      <root>
        <mxCell id="0" />
        <mxCell id="1" parent="0" />
        <mxCell id="KKKsbpTrxdEmYSQi9vJz-2" value="" style="edgeStyle=orthogonalEdgeStyle;rounded=0;orthogonalLoop=1;jettySize=auto;html=1;labelBackgroundColor=none;strokeColor=#23445D;fontColor=default;" parent="1" source="9t-0y1vMLNCi1Hn2aoTc-1" target="KKKsbpTrxdEmYSQi9vJz-1" edge="1">
          <mxGeometry relative="1" as="geometry">
            <Array as="points">
              <mxPoint x="240" y="120" />
              <mxPoint x="240" y="55" />
            </Array>
          </mxGeometry>
        </mxCell>
        <mxCell id="9t-0y1vMLNCi1Hn2aoTc-1" value="\(\int_a^b \sin{x} \,\mathrm{d} x\)" style="rounded=0;whiteSpace=wrap;html=1;fontFamily=Comic Sans MS;fontSize=18;labelBackgroundColor=none;fillColor=#182E3E;strokeColor=#FFFFFF;fontColor=#FFFFFF;" parent="1" vertex="1">
          <mxGeometry x="70" y="80" width="130" height="90" as="geometry" />
        </mxCell>
        <mxCell id="KKKsbpTrxdEmYSQi9vJz-19" value="" style="edgeStyle=orthogonalEdgeStyle;rounded=0;orthogonalLoop=1;jettySize=auto;html=1;strokeColor=#23445D;" parent="1" source="KKKsbpTrxdEmYSQi9vJz-1" target="KKKsbpTrxdEmYSQi9vJz-18" edge="1">
          <mxGeometry relative="1" as="geometry" />
        </mxCell>
        <mxCell id="KKKsbpTrxdEmYSQi9vJz-1" value="第二步" style="rounded=0;whiteSpace=wrap;html=1;fontFamily=Comic Sans MS;fontSize=18;labelBackgroundColor=none;fillColor=#182E3E;strokeColor=#FFFFFF;fontColor=#FFFFFF;direction=west;" parent="1" vertex="1">
          <mxGeometry x="270" y="10" width="130" height="90" as="geometry" />
        </mxCell>
        <mxCell id="KKKsbpTrxdEmYSQi9vJz-9" value="第三步" style="whiteSpace=wrap;html=1;aspect=fixed;labelBackgroundColor=none;fillColor=#182E3E;strokeColor=#FFFFFF;fontColor=#FFFFFF;" parent="1" vertex="1">
          <mxGeometry x="310" y="150" width="70" height="70" as="geometry" />
        </mxCell>
        <mxCell id="KKKsbpTrxdEmYSQi9vJz-14" style="edgeStyle=orthogonalEdgeStyle;rounded=0;orthogonalLoop=1;jettySize=auto;html=1;entryX=0;entryY=0.5;entryDx=0;entryDy=0;jumpSize=6;labelBackgroundColor=none;strokeColor=#23445D;fontColor=default;" parent="1" source="9t-0y1vMLNCi1Hn2aoTc-1" target="KKKsbpTrxdEmYSQi9vJz-9" edge="1">
          <mxGeometry relative="1" as="geometry">
            <Array as="points">
              <mxPoint x="240" y="120" />
              <mxPoint x="240" y="185" />
            </Array>
          </mxGeometry>
        </mxCell>
        <mxCell id="KKKsbpTrxdEmYSQi9vJz-21" value="" style="edgeStyle=orthogonalEdgeStyle;rounded=0;orthogonalLoop=1;jettySize=auto;html=1;strokeColor=#23445D;" parent="1" source="KKKsbpTrxdEmYSQi9vJz-18" target="KKKsbpTrxdEmYSQi9vJz-20" edge="1">
          <mxGeometry relative="1" as="geometry" />
        </mxCell>
        <mxCell id="KKKsbpTrxdEmYSQi9vJz-18" value="" style="rhombus;whiteSpace=wrap;html=1;fontSize=18;fontFamily=Comic Sans MS;fillColor=#182E3E;strokeColor=#FFFFFF;fontColor=#FFFFFF;rounded=0;labelBackgroundColor=none;" parent="1" vertex="1">
          <mxGeometry x="505" y="15" width="80" height="80" as="geometry" />
        </mxCell>
        <mxCell id="KKKsbpTrxdEmYSQi9vJz-23" value="" style="edgeStyle=orthogonalEdgeStyle;rounded=0;orthogonalLoop=1;jettySize=auto;html=1;strokeColor=#23445D;" parent="1" source="KKKsbpTrxdEmYSQi9vJz-20" target="KKKsbpTrxdEmYSQi9vJz-22" edge="1">
          <mxGeometry relative="1" as="geometry" />
        </mxCell>
        <mxCell id="KKKsbpTrxdEmYSQi9vJz-20" value="" style="whiteSpace=wrap;html=1;fontSize=18;fontFamily=Comic Sans MS;fillColor=#182E3E;strokeColor=#FFFFFF;fontColor=#FFFFFF;rounded=0;labelBackgroundColor=none;" parent="1" vertex="1">
          <mxGeometry x="485" y="155" width="120" height="60" as="geometry" />
        </mxCell>
        <mxCell id="KKKsbpTrxdEmYSQi9vJz-24" style="edgeStyle=orthogonalEdgeStyle;rounded=0;orthogonalLoop=1;jettySize=auto;html=1;strokeColor=#23445D;entryX=0.458;entryY=1.02;entryDx=0;entryDy=0;entryPerimeter=0;" parent="1" source="KKKsbpTrxdEmYSQi9vJz-22" target="9t-0y1vMLNCi1Hn2aoTc-1" edge="1">
          <mxGeometry relative="1" as="geometry">
            <mxPoint x="130" y="180" as="targetPoint" />
          </mxGeometry>
        </mxCell>
        <mxCell id="KKKsbpTrxdEmYSQi9vJz-22" value="" style="shape=parallelogram;perimeter=parallelogramPerimeter;whiteSpace=wrap;html=1;fixedSize=1;fontSize=18;fontFamily=Comic Sans MS;fillColor=#182E3E;strokeColor=#FFFFFF;fontColor=#FFFFFF;rounded=0;labelBackgroundColor=none;" parent="1" vertex="1">
          <mxGeometry x="485" y="295" width="120" height="60" as="geometry" />
        </mxCell>
        <mxCell id="KKKsbpTrxdEmYSQi9vJz-28" value="" style="endArrow=classic;html=1;rounded=0;strokeColor=#23445D;" parent="1" target="KKKsbpTrxdEmYSQi9vJz-22" edge="1">
          <mxGeometry width="50" height="50" relative="1" as="geometry">
            <mxPoint x="380" y="220" as="sourcePoint" />
            <mxPoint x="430" y="270" as="targetPoint" />
          </mxGeometry>
        </mxCell>
      </root>
    </mxGraphModel>
  </diagram>
</mxfile>
